<mxfile host="app.diagrams.net" agent="Mozilla/5.0 (X11; Ubuntu; Linux x86_64; rv:138.0) Gecko/20100101 Firefox/138.0" version="27.0.9">
  <diagram name="Page-1" id="idE6e-biIWdMHX_iMEbE">
    <mxGraphModel dx="1370" dy="792" grid="1" gridSize="5" guides="1" tooltips="1" connect="1" arrows="1" fold="1" page="1" pageScale="1" pageWidth="827" pageHeight="1169" math="0" shadow="0">
      <root>
        <mxCell id="0" />
        <mxCell id="1" parent="0" />
        <mxCell id="MI-Eo50_L391bbI2hQXU-31" value="&lt;div&gt;Register&lt;/div&gt;&lt;div&gt;File&lt;/div&gt;" style="rounded=0;whiteSpace=wrap;html=1;" vertex="1" parent="1">
          <mxGeometry x="185" y="351" width="110" height="160" as="geometry" />
        </mxCell>
        <mxCell id="MI-Eo50_L391bbI2hQXU-37" value="" style="endArrow=classic;html=1;rounded=0;entryX=-0.012;entryY=0.519;entryDx=0;entryDy=0;strokeWidth=2;exitX=0.5;exitY=0;exitDx=0;exitDy=0;entryPerimeter=0;" edge="1" parent="1" target="MI-Eo50_L391bbI2hQXU-31">
          <mxGeometry width="50" height="50" relative="1" as="geometry">
            <mxPoint x="144.1099999999999" y="434.38" as="sourcePoint" />
            <mxPoint x="184.9999999999999" y="433.6199999999999" as="targetPoint" />
          </mxGeometry>
        </mxCell>
        <mxCell id="MI-Eo50_L391bbI2hQXU-49" value="" style="endArrow=classic;html=1;rounded=0;" edge="1" parent="1">
          <mxGeometry width="50" height="50" relative="1" as="geometry">
            <mxPoint x="134.91999999999996" y="517.5" as="sourcePoint" />
            <mxPoint x="134.91999999999996" y="464.5" as="targetPoint" />
          </mxGeometry>
        </mxCell>
        <mxCell id="MI-Eo50_L391bbI2hQXU-205" value="&lt;div&gt;rd_rs1_mux&lt;/div&gt;" style="edgeLabel;html=1;align=center;verticalAlign=middle;resizable=0;points=[];" vertex="1" connectable="0" parent="MI-Eo50_L391bbI2hQXU-49">
          <mxGeometry x="-0.6226" y="1" relative="1" as="geometry">
            <mxPoint y="17" as="offset" />
          </mxGeometry>
        </mxCell>
        <mxCell id="MI-Eo50_L391bbI2hQXU-55" value="" style="endArrow=classic;html=1;rounded=0;strokeWidth=2;" edge="1" parent="1">
          <mxGeometry width="50" height="50" relative="1" as="geometry">
            <mxPoint x="60" y="265" as="sourcePoint" />
            <mxPoint x="125" y="415" as="targetPoint" />
            <Array as="points">
              <mxPoint x="60" y="415" />
            </Array>
          </mxGeometry>
        </mxCell>
        <mxCell id="MI-Eo50_L391bbI2hQXU-56" value="rs1_addr" style="edgeLabel;html=1;align=center;verticalAlign=middle;resizable=0;points=[];" vertex="1" connectable="0" parent="MI-Eo50_L391bbI2hQXU-55">
          <mxGeometry x="-0.3166" y="1" relative="1" as="geometry">
            <mxPoint x="24" y="66" as="offset" />
          </mxGeometry>
        </mxCell>
        <mxCell id="MI-Eo50_L391bbI2hQXU-217" value="instr" style="edgeLabel;html=1;align=center;verticalAlign=middle;resizable=0;points=[];" vertex="1" connectable="0" parent="MI-Eo50_L391bbI2hQXU-55">
          <mxGeometry x="-0.8828" y="1" relative="1" as="geometry">
            <mxPoint x="-41" y="-17" as="offset" />
          </mxGeometry>
        </mxCell>
        <mxCell id="MI-Eo50_L391bbI2hQXU-64" value="" style="endArrow=classic;html=1;rounded=0;strokeWidth=2;" edge="1" parent="1">
          <mxGeometry width="50" height="50" relative="1" as="geometry">
            <mxPoint x="295" y="391" as="sourcePoint" />
            <mxPoint x="425" y="391" as="targetPoint" />
          </mxGeometry>
        </mxCell>
        <mxCell id="MI-Eo50_L391bbI2hQXU-65" value="rs1_value[31:0]" style="edgeLabel;html=1;align=center;verticalAlign=middle;resizable=0;points=[];" vertex="1" connectable="0" parent="MI-Eo50_L391bbI2hQXU-64">
          <mxGeometry x="0.0907" y="2" relative="1" as="geometry">
            <mxPoint x="-28" y="-8" as="offset" />
          </mxGeometry>
        </mxCell>
        <mxCell id="MI-Eo50_L391bbI2hQXU-66" value="" style="endArrow=classic;html=1;rounded=0;strokeWidth=2;" edge="1" parent="1">
          <mxGeometry width="50" height="50" relative="1" as="geometry">
            <mxPoint x="295" y="471" as="sourcePoint" />
            <mxPoint x="425" y="471" as="targetPoint" />
          </mxGeometry>
        </mxCell>
        <mxCell id="MI-Eo50_L391bbI2hQXU-67" value="rs2_value[31:0]" style="edgeLabel;html=1;align=center;verticalAlign=middle;resizable=0;points=[];" vertex="1" connectable="0" parent="MI-Eo50_L391bbI2hQXU-66">
          <mxGeometry x="0.7061" y="2" relative="1" as="geometry">
            <mxPoint x="-70" y="-7" as="offset" />
          </mxGeometry>
        </mxCell>
        <mxCell id="MI-Eo50_L391bbI2hQXU-68" value="" style="triangle;whiteSpace=wrap;html=1;" vertex="1" parent="1">
          <mxGeometry x="185" y="486" width="10" height="10" as="geometry" />
        </mxCell>
        <mxCell id="MI-Eo50_L391bbI2hQXU-69" value="" style="endArrow=none;html=1;rounded=0;startFill=0;entryX=0.008;entryY=0.837;entryDx=0;entryDy=0;entryPerimeter=0;" edge="1" parent="1">
          <mxGeometry width="50" height="50" relative="1" as="geometry">
            <mxPoint x="174.12" y="491.0200000000001" as="sourcePoint" />
            <mxPoint x="185" y="490.94000000000005" as="targetPoint" />
          </mxGeometry>
        </mxCell>
        <mxCell id="MI-Eo50_L391bbI2hQXU-70" value="&lt;div&gt;clk&lt;/div&gt;" style="edgeLabel;html=1;align=center;verticalAlign=middle;resizable=0;points=[];" vertex="1" connectable="0" parent="MI-Eo50_L391bbI2hQXU-69">
          <mxGeometry x="-0.9169" relative="1" as="geometry">
            <mxPoint x="-10" as="offset" />
          </mxGeometry>
        </mxCell>
        <mxCell id="MI-Eo50_L391bbI2hQXU-71" value="" style="endArrow=classic;html=1;rounded=0;strokeWidth=2;" edge="1" parent="1">
          <mxGeometry width="50" height="50" relative="1" as="geometry">
            <mxPoint x="60" y="375" as="sourcePoint" />
            <mxPoint x="185" y="375" as="targetPoint" />
          </mxGeometry>
        </mxCell>
        <mxCell id="MI-Eo50_L391bbI2hQXU-72" value="rs2_addr" style="edgeLabel;html=1;align=center;verticalAlign=middle;resizable=0;points=[];" vertex="1" connectable="0" parent="MI-Eo50_L391bbI2hQXU-71">
          <mxGeometry x="0.616" relative="1" as="geometry">
            <mxPoint x="-76" y="-10" as="offset" />
          </mxGeometry>
        </mxCell>
        <mxCell id="MI-Eo50_L391bbI2hQXU-96" value="&lt;div&gt;ALU&lt;/div&gt;" style="rounded=0;whiteSpace=wrap;html=1;rotation=0;" vertex="1" parent="1">
          <mxGeometry x="617" y="350" width="80" height="175.27" as="geometry" />
        </mxCell>
        <mxCell id="MI-Eo50_L391bbI2hQXU-97" value="" style="endArrow=classic;html=1;rounded=0;strokeWidth=2;" edge="1" parent="1">
          <mxGeometry width="50" height="50" relative="1" as="geometry">
            <mxPoint x="577" y="388.02" as="sourcePoint" />
            <mxPoint x="617" y="388.02" as="targetPoint" />
          </mxGeometry>
        </mxCell>
        <mxCell id="MI-Eo50_L391bbI2hQXU-98" value="" style="endArrow=classic;html=1;rounded=0;strokeWidth=2;exitX=0.5;exitY=0;exitDx=0;exitDy=0;entryX=0.008;entryY=0.851;entryDx=0;entryDy=0;entryPerimeter=0;" edge="1" parent="1" source="MI-Eo50_L391bbI2hQXU-216" target="MI-Eo50_L391bbI2hQXU-96">
          <mxGeometry width="50" height="50" relative="1" as="geometry">
            <mxPoint x="581.25" y="501.03999999999996" as="sourcePoint" />
            <mxPoint x="615" y="501" as="targetPoint" />
          </mxGeometry>
        </mxCell>
        <mxCell id="MI-Eo50_L391bbI2hQXU-107" value="" style="endArrow=classic;html=1;rounded=0;strokeWidth=2;entryX=0.103;entryY=1.001;entryDx=0;entryDy=0;entryPerimeter=0;" edge="1" parent="1">
          <mxGeometry width="50" height="50" relative="1" as="geometry">
            <mxPoint x="455" y="470" as="sourcePoint" />
            <mxPoint x="564.9819999999997" y="469.99749999999995" as="targetPoint" />
          </mxGeometry>
        </mxCell>
        <mxCell id="MI-Eo50_L391bbI2hQXU-108" value="immediate" style="edgeLabel;html=1;align=center;verticalAlign=middle;resizable=0;points=[];" vertex="1" connectable="0" parent="MI-Eo50_L391bbI2hQXU-107">
          <mxGeometry x="-0.6914" y="-1" relative="1" as="geometry">
            <mxPoint x="13" y="-12" as="offset" />
          </mxGeometry>
        </mxCell>
        <mxCell id="MI-Eo50_L391bbI2hQXU-109" value="" style="endArrow=classic;html=1;rounded=0;strokeWidth=2;entryX=0.5;entryY=1;entryDx=0;entryDy=0;" edge="1" parent="1" target="MI-Eo50_L391bbI2hQXU-216">
          <mxGeometry width="50" height="50" relative="1" as="geometry">
            <mxPoint x="455" y="499" as="sourcePoint" />
            <mxPoint x="565" y="499" as="targetPoint" />
          </mxGeometry>
        </mxCell>
        <mxCell id="MI-Eo50_L391bbI2hQXU-110" value="rs2_value" style="edgeLabel;html=1;align=center;verticalAlign=middle;resizable=0;points=[];" vertex="1" connectable="0" parent="MI-Eo50_L391bbI2hQXU-109">
          <mxGeometry x="-0.2857" relative="1" as="geometry">
            <mxPoint x="-10" y="-13" as="offset" />
          </mxGeometry>
        </mxCell>
        <mxCell id="MI-Eo50_L391bbI2hQXU-111" value="" style="endArrow=classic;html=1;rounded=0;strokeWidth=2;entryX=0.75;entryY=1;entryDx=0;entryDy=0;" edge="1" parent="1" target="MI-Eo50_L391bbI2hQXU-215">
          <mxGeometry width="50" height="50" relative="1" as="geometry">
            <mxPoint x="455" y="412" as="sourcePoint" />
            <mxPoint x="565" y="415" as="targetPoint" />
          </mxGeometry>
        </mxCell>
        <mxCell id="MI-Eo50_L391bbI2hQXU-112" value="rs1_value" style="edgeLabel;html=1;align=center;verticalAlign=middle;resizable=0;points=[];" vertex="1" connectable="0" parent="MI-Eo50_L391bbI2hQXU-111">
          <mxGeometry x="-0.6152" relative="1" as="geometry">
            <mxPoint x="9" y="-11" as="offset" />
          </mxGeometry>
        </mxCell>
        <mxCell id="MI-Eo50_L391bbI2hQXU-113" value="" style="endArrow=classic;html=1;rounded=0;strokeWidth=2;entryX=0.5;entryY=1;entryDx=0;entryDy=0;" edge="1" parent="1">
          <mxGeometry width="50" height="50" relative="1" as="geometry">
            <mxPoint x="454" y="386.34999999999997" as="sourcePoint" />
            <mxPoint x="564.9999999999998" y="386.4999999999999" as="targetPoint" />
          </mxGeometry>
        </mxCell>
        <mxCell id="MI-Eo50_L391bbI2hQXU-114" value="curr_pc" style="edgeLabel;html=1;align=center;verticalAlign=middle;resizable=0;points=[];" vertex="1" connectable="0" parent="MI-Eo50_L391bbI2hQXU-113">
          <mxGeometry x="-0.7676" y="1" relative="1" as="geometry">
            <mxPoint x="13" y="-11" as="offset" />
          </mxGeometry>
        </mxCell>
        <mxCell id="MI-Eo50_L391bbI2hQXU-124" value="" style="endArrow=classic;html=1;rounded=0;strokeWidth=2;exitX=1;exitY=0.25;exitDx=0;exitDy=0;" edge="1" parent="1">
          <mxGeometry width="50" height="50" relative="1" as="geometry">
            <mxPoint x="697" y="437.83" as="sourcePoint" />
            <mxPoint x="740" y="438" as="targetPoint" />
          </mxGeometry>
        </mxCell>
        <mxCell id="MI-Eo50_L391bbI2hQXU-125" value="alu_result [31:0]" style="edgeLabel;html=1;align=center;verticalAlign=middle;resizable=0;points=[];" vertex="1" connectable="0" parent="MI-Eo50_L391bbI2hQXU-124">
          <mxGeometry x="0.44" y="1" relative="1" as="geometry">
            <mxPoint x="57" y="1" as="offset" />
          </mxGeometry>
        </mxCell>
        <mxCell id="MI-Eo50_L391bbI2hQXU-179" value="" style="rounded=0;whiteSpace=wrap;html=1;" vertex="1" parent="1">
          <mxGeometry x="424" y="220" width="30" height="335" as="geometry" />
        </mxCell>
        <mxCell id="MI-Eo50_L391bbI2hQXU-193" value="" style="triangle;whiteSpace=wrap;html=1;rotation=-90;" vertex="1" parent="1">
          <mxGeometry x="427.37" y="530" width="23.25" height="25" as="geometry" />
        </mxCell>
        <mxCell id="MI-Eo50_L391bbI2hQXU-209" value="" style="shape=trapezoid;perimeter=trapezoidPerimeter;whiteSpace=wrap;html=1;fixedSize=1;rotation=90;" vertex="1" parent="1">
          <mxGeometry x="95" y="425" width="80" height="18" as="geometry" />
        </mxCell>
        <mxCell id="MI-Eo50_L391bbI2hQXU-211" value="" style="endArrow=classic;html=1;rounded=0;strokeWidth=2;" edge="1" parent="1">
          <mxGeometry width="50" height="50" relative="1" as="geometry">
            <mxPoint x="60" y="446" as="sourcePoint" />
            <mxPoint x="125" y="446" as="targetPoint" />
          </mxGeometry>
        </mxCell>
        <mxCell id="MI-Eo50_L391bbI2hQXU-214" value="rd_addr_dm" style="edgeLabel;html=1;align=center;verticalAlign=middle;resizable=0;points=[];" vertex="1" connectable="0" parent="MI-Eo50_L391bbI2hQXU-211">
          <mxGeometry x="-0.4683" y="3" relative="1" as="geometry">
            <mxPoint x="-32" y="-9" as="offset" />
          </mxGeometry>
        </mxCell>
        <mxCell id="MI-Eo50_L391bbI2hQXU-215" value="" style="shape=trapezoid;perimeter=trapezoidPerimeter;whiteSpace=wrap;html=1;fixedSize=1;rotation=90;" vertex="1" parent="1">
          <mxGeometry x="528.1300000000001" y="379.38" width="93.75" height="18" as="geometry" />
        </mxCell>
        <mxCell id="MI-Eo50_L391bbI2hQXU-216" value="" style="shape=trapezoid;perimeter=trapezoidPerimeter;whiteSpace=wrap;html=1;fixedSize=1;rotation=90;" vertex="1" parent="1">
          <mxGeometry x="530.95" y="490.07000000000005" width="88.12" height="18" as="geometry" />
        </mxCell>
        <mxCell id="MI-Eo50_L391bbI2hQXU-219" value="" style="endArrow=classic;html=1;rounded=0;strokeWidth=2;fillColor=#ffe6cc;strokeColor=#d79b00;" edge="1" parent="1">
          <mxGeometry width="50" height="50" relative="1" as="geometry">
            <mxPoint x="530" y="609" as="sourcePoint" />
            <mxPoint x="565" y="360" as="targetPoint" />
            <Array as="points">
              <mxPoint x="530" y="360" />
            </Array>
          </mxGeometry>
        </mxCell>
        <mxCell id="MI-Eo50_L391bbI2hQXU-221" value="&lt;div&gt;alu_result_dm&lt;/div&gt;" style="edgeLabel;html=1;align=center;verticalAlign=middle;resizable=0;points=[];fontColor=light-dark(#ffcc00, #ededed);" vertex="1" connectable="0" parent="MI-Eo50_L391bbI2hQXU-219">
          <mxGeometry x="-0.9273" relative="1" as="geometry">
            <mxPoint x="-1" y="21" as="offset" />
          </mxGeometry>
        </mxCell>
        <mxCell id="MI-Eo50_L391bbI2hQXU-220" value="" style="endArrow=classic;html=1;rounded=0;strokeWidth=2;fillColor=#ffe6cc;strokeColor=#d79b00;" edge="1" parent="1">
          <mxGeometry width="50" height="50" relative="1" as="geometry">
            <mxPoint x="530" y="525" as="sourcePoint" />
            <mxPoint x="566" y="525" as="targetPoint" />
          </mxGeometry>
        </mxCell>
        <mxCell id="MI-Eo50_L391bbI2hQXU-225" value="&lt;div&gt;rs1_addr == rd_addr_dm ||&lt;/div&gt;&lt;div&gt;rs1_addr == rd_addr_dm?&lt;/div&gt;" style="ellipse;whiteSpace=wrap;html=1;fillColor=#fff2cc;strokeColor=#d6b656;" vertex="1" parent="1">
          <mxGeometry x="550" y="225" width="175.93" height="65" as="geometry" />
        </mxCell>
        <mxCell id="MI-Eo50_L391bbI2hQXU-228" value="decoder" style="rounded=0;whiteSpace=wrap;html=1;" vertex="1" parent="1">
          <mxGeometry x="185" y="235" width="110" height="60" as="geometry" />
        </mxCell>
        <mxCell id="MI-Eo50_L391bbI2hQXU-229" value="" style="endArrow=classic;html=1;rounded=0;entryX=0;entryY=0.5;entryDx=0;entryDy=0;strokeWidth=2;" edge="1" parent="1" target="MI-Eo50_L391bbI2hQXU-228">
          <mxGeometry width="50" height="50" relative="1" as="geometry">
            <mxPoint x="35" y="265" as="sourcePoint" />
            <mxPoint x="60" y="210" as="targetPoint" />
          </mxGeometry>
        </mxCell>
        <mxCell id="MI-Eo50_L391bbI2hQXU-230" value="" style="endArrow=classic;html=1;rounded=0;entryX=-0.022;entryY=0.194;entryDx=0;entryDy=0;entryPerimeter=0;" edge="1" parent="1" target="MI-Eo50_L391bbI2hQXU-179">
          <mxGeometry width="50" height="50" relative="1" as="geometry">
            <mxPoint x="295" y="285" as="sourcePoint" />
            <mxPoint x="410" y="285" as="targetPoint" />
          </mxGeometry>
        </mxCell>
        <mxCell id="MI-Eo50_L391bbI2hQXU-233" value="b_sel" style="edgeLabel;html=1;align=center;verticalAlign=middle;resizable=0;points=[];" vertex="1" connectable="0" parent="MI-Eo50_L391bbI2hQXU-230">
          <mxGeometry x="0.3504" y="-1" relative="1" as="geometry">
            <mxPoint y="-11" as="offset" />
          </mxGeometry>
        </mxCell>
        <mxCell id="MI-Eo50_L391bbI2hQXU-231" value="" style="endArrow=classic;html=1;rounded=0;entryX=0.004;entryY=0.189;entryDx=0;entryDy=0;entryPerimeter=0;" edge="1" parent="1">
          <mxGeometry width="50" height="50" relative="1" as="geometry">
            <mxPoint x="295" y="245" as="sourcePoint" />
            <mxPoint x="424" y="245" as="targetPoint" />
          </mxGeometry>
        </mxCell>
        <mxCell id="MI-Eo50_L391bbI2hQXU-232" value="a_sel" style="edgeLabel;html=1;align=center;verticalAlign=middle;resizable=0;points=[];" vertex="1" connectable="0" parent="MI-Eo50_L391bbI2hQXU-231">
          <mxGeometry x="0.3097" relative="1" as="geometry">
            <mxPoint y="-10" as="offset" />
          </mxGeometry>
        </mxCell>
        <mxCell id="MI-Eo50_L391bbI2hQXU-234" value="" style="endArrow=classic;html=1;rounded=0;" edge="1" parent="1">
          <mxGeometry width="50" height="50" relative="1" as="geometry">
            <mxPoint x="455" y="330" as="sourcePoint" />
            <mxPoint x="570" y="346" as="targetPoint" />
            <Array as="points">
              <mxPoint x="495" y="330" />
              <mxPoint x="570" y="330" />
            </Array>
          </mxGeometry>
        </mxCell>
        <mxCell id="MI-Eo50_L391bbI2hQXU-235" value="a_sel" style="edgeLabel;html=1;align=center;verticalAlign=middle;resizable=0;points=[];" vertex="1" connectable="0" parent="MI-Eo50_L391bbI2hQXU-234">
          <mxGeometry x="0.3097" relative="1" as="geometry">
            <mxPoint x="-66" y="-10" as="offset" />
          </mxGeometry>
        </mxCell>
        <mxCell id="MI-Eo50_L391bbI2hQXU-236" value="" style="endArrow=classic;html=1;rounded=0;" edge="1" parent="1">
          <mxGeometry width="50" height="50" relative="1" as="geometry">
            <mxPoint x="455" y="443" as="sourcePoint" />
            <mxPoint x="570" y="459" as="targetPoint" />
            <Array as="points">
              <mxPoint x="495" y="443" />
              <mxPoint x="570" y="443" />
            </Array>
          </mxGeometry>
        </mxCell>
        <mxCell id="MI-Eo50_L391bbI2hQXU-237" value="b_sel" style="edgeLabel;html=1;align=center;verticalAlign=middle;resizable=0;points=[];" vertex="1" connectable="0" parent="MI-Eo50_L391bbI2hQXU-236">
          <mxGeometry x="0.3097" relative="1" as="geometry">
            <mxPoint x="-71" y="-9" as="offset" />
          </mxGeometry>
        </mxCell>
        <mxCell id="MI-Eo50_L391bbI2hQXU-238" value="" style="endArrow=classic;html=1;rounded=0;entryX=0.023;entryY=0.343;entryDx=0;entryDy=0;entryPerimeter=0;fillColor=#ffe6cc;strokeColor=#d79b00;strokeWidth=2;" edge="1" parent="1" target="MI-Eo50_L391bbI2hQXU-179">
          <mxGeometry width="50" height="50" relative="1" as="geometry">
            <mxPoint x="60" y="335" as="sourcePoint" />
            <mxPoint x="110" y="285" as="targetPoint" />
          </mxGeometry>
        </mxCell>
        <mxCell id="MI-Eo50_L391bbI2hQXU-241" value="rs2_addr" style="edgeLabel;html=1;align=center;verticalAlign=middle;resizable=0;points=[];fontColor=light-dark(#ffcc00, #ededed);" vertex="1" connectable="0" parent="MI-Eo50_L391bbI2hQXU-238">
          <mxGeometry x="-0.7883" y="2" relative="1" as="geometry">
            <mxPoint x="-9" y="-8" as="offset" />
          </mxGeometry>
        </mxCell>
        <mxCell id="MI-Eo50_L391bbI2hQXU-239" value="" style="endArrow=classic;html=1;rounded=0;entryX=0.023;entryY=0.343;entryDx=0;entryDy=0;entryPerimeter=0;fillColor=#ffe6cc;strokeColor=#d79b00;strokeWidth=2;" edge="1" parent="1">
          <mxGeometry width="50" height="50" relative="1" as="geometry">
            <mxPoint x="59" y="310" as="sourcePoint" />
            <mxPoint x="424" y="310" as="targetPoint" />
          </mxGeometry>
        </mxCell>
        <mxCell id="MI-Eo50_L391bbI2hQXU-240" value="rs1_addr" style="edgeLabel;html=1;align=center;verticalAlign=middle;resizable=0;points=[];fontColor=light-dark(#ffcc00, #ededed);" vertex="1" connectable="0" parent="MI-Eo50_L391bbI2hQXU-239">
          <mxGeometry x="-0.4871" relative="1" as="geometry">
            <mxPoint x="-63" y="-15" as="offset" />
          </mxGeometry>
        </mxCell>
        <mxCell id="MI-Eo50_L391bbI2hQXU-242" value="" style="endArrow=classic;html=1;rounded=0;entryX=0.029;entryY=0.301;entryDx=0;entryDy=0;entryPerimeter=0;strokeWidth=2;fillColor=#ffe6cc;strokeColor=#d79b00;" edge="1" parent="1" target="MI-Eo50_L391bbI2hQXU-225">
          <mxGeometry width="50" height="50" relative="1" as="geometry">
            <mxPoint x="454" y="245" as="sourcePoint" />
            <mxPoint x="504" y="195" as="targetPoint" />
          </mxGeometry>
        </mxCell>
        <mxCell id="MI-Eo50_L391bbI2hQXU-246" value="rs1_addr" style="edgeLabel;html=1;align=center;verticalAlign=middle;resizable=0;points=[];fontColor=light-dark(#ffcc00, #ededed);" vertex="1" connectable="0" parent="MI-Eo50_L391bbI2hQXU-242">
          <mxGeometry x="0.0247" relative="1" as="geometry">
            <mxPoint x="-21" y="-10" as="offset" />
          </mxGeometry>
        </mxCell>
        <mxCell id="MI-Eo50_L391bbI2hQXU-243" value="" style="endArrow=classic;html=1;rounded=0;entryX=0.029;entryY=0.301;entryDx=0;entryDy=0;entryPerimeter=0;strokeWidth=2;fillColor=#ffe6cc;strokeColor=#d79b00;" edge="1" parent="1">
          <mxGeometry width="50" height="50" relative="1" as="geometry">
            <mxPoint x="455" y="270" as="sourcePoint" />
            <mxPoint x="556" y="270" as="targetPoint" />
          </mxGeometry>
        </mxCell>
        <mxCell id="MI-Eo50_L391bbI2hQXU-247" value="rs2_addr" style="edgeLabel;html=1;align=center;verticalAlign=middle;resizable=0;points=[];fontColor=light-dark(#ffcc00, #ededed);" vertex="1" connectable="0" parent="MI-Eo50_L391bbI2hQXU-243">
          <mxGeometry x="-0.3267" y="1" relative="1" as="geometry">
            <mxPoint x="-4" y="-11" as="offset" />
          </mxGeometry>
        </mxCell>
        <mxCell id="MI-Eo50_L391bbI2hQXU-244" value="" style="endArrow=classic;html=1;rounded=0;entryX=0.5;entryY=0;entryDx=0;entryDy=0;fillColor=#ffe6cc;strokeColor=#d79b00;strokeWidth=2;" edge="1" parent="1" target="MI-Eo50_L391bbI2hQXU-225">
          <mxGeometry width="50" height="50" relative="1" as="geometry">
            <mxPoint x="638" y="180" as="sourcePoint" />
            <mxPoint x="696" y="200" as="targetPoint" />
          </mxGeometry>
        </mxCell>
        <mxCell id="MI-Eo50_L391bbI2hQXU-245" value="rd_addr_dm" style="edgeLabel;html=1;align=center;verticalAlign=middle;resizable=0;points=[];fontColor=light-dark(#ffcc00, #ededed);" vertex="1" connectable="0" parent="MI-Eo50_L391bbI2hQXU-244">
          <mxGeometry x="-0.76" y="1" relative="1" as="geometry">
            <mxPoint x="-1" y="-16" as="offset" />
          </mxGeometry>
        </mxCell>
        <mxCell id="MI-Eo50_L391bbI2hQXU-248" value="" style="endArrow=classic;html=1;rounded=0;entryX=0;entryY=0.25;entryDx=0;entryDy=0;fillColor=#ffe6cc;strokeColor=#d79b00;" edge="1" parent="1" target="MI-Eo50_L391bbI2hQXU-215">
          <mxGeometry width="50" height="50" relative="1" as="geometry">
            <mxPoint x="640" y="290" as="sourcePoint" />
            <mxPoint x="580" y="325" as="targetPoint" />
            <Array as="points">
              <mxPoint x="640" y="330" />
              <mxPoint x="578" y="330" />
            </Array>
          </mxGeometry>
        </mxCell>
        <mxCell id="MI-Eo50_L391bbI2hQXU-249" value="" style="endArrow=classic;html=1;rounded=0;entryX=0;entryY=0.25;entryDx=0;entryDy=0;fillColor=#ffe6cc;strokeColor=#d79b00;" edge="1" parent="1" target="MI-Eo50_L391bbI2hQXU-216">
          <mxGeometry width="50" height="50" relative="1" as="geometry">
            <mxPoint x="600" y="330" as="sourcePoint" />
            <mxPoint x="600" y="460" as="targetPoint" />
            <Array as="points">
              <mxPoint x="600" y="440" />
              <mxPoint x="578" y="440" />
            </Array>
          </mxGeometry>
        </mxCell>
      </root>
    </mxGraphModel>
  </diagram>
</mxfile>
